<svg width="30" height="30" viewBox="0 0 30 30" fill="none" xmlns="http://www.w3.org/2000/svg">
<path d="M15 10.6C15.8702 10.6 16.7209 10.8581 17.4445 11.3415C18.1681 11.825 18.732 12.5122 19.0651 13.3162C19.3981 14.1202 19.4852 15.0049 19.3155 15.8584C19.1457 16.7119 18.7266 17.4959 18.1113 18.1113C17.4959 18.7266 16.7119 19.1457 15.8584 19.3155C15.0049 19.4852 14.1202 19.3981 13.3162 19.0651C12.5122 18.732 11.825 18.1681 11.3415 17.4445C10.8581 16.7209 10.6 15.8702 10.6 15C10.6033 13.8341 11.0679 12.7168 11.8924 11.8924C12.7168 11.0679 13.8341 10.6033 15 10.6ZM15 8.75C13.7639 8.75 12.5555 9.11656 11.5277 9.80331C10.4999 10.4901 9.6988 11.4662 9.22576 12.6082C8.75271 13.7503 8.62894 15.0069 8.87009 16.2193C9.11125 17.4317 9.70651 18.5453 10.5806 19.4194C11.4547 20.2935 12.5683 20.8888 13.7807 21.1299C14.9931 21.3711 16.2497 21.2473 17.3918 20.7742C18.5338 20.3012 19.5099 19.5001 20.1967 18.4723C20.8834 17.4445 21.25 16.2361 21.25 15C21.25 13.3424 20.5915 11.7527 19.4194 10.5806C18.2473 9.40848 16.6576 8.75 15 8.75Z" fill="#F2DC90"/>
<path d="M15 27.4999C14.7524 27.4967 14.5158 27.3969 14.3407 27.2217C14.1655 27.0466 14.0657 26.81 14.0625 26.5624V23.3374C14.0625 23.0888 14.1613 22.8503 14.3371 22.6745C14.5129 22.4987 14.7514 22.3999 15 22.3999C15.2486 22.3999 15.4871 22.4987 15.6629 22.6745C15.8387 22.8503 15.9375 23.0888 15.9375 23.3374V26.5624C15.9343 26.81 15.8345 27.0466 15.6593 27.2217C15.4842 27.3969 15.2476 27.4967 15 27.4999Z" fill="#F2DC90"/>
<path d="M27.5 15C27.4968 15.2476 27.397 15.4842 27.2219 15.6593C27.0467 15.8345 26.8102 15.9343 26.5625 15.9375H23.3375C23.0889 15.9375 22.8504 15.8387 22.6746 15.6629C22.4988 15.4871 22.4 15.2486 22.4 15C22.4 14.7514 22.4988 14.5129 22.6746 14.3371C22.8504 14.1613 23.0889 14.0625 23.3375 14.0625H26.5625C26.8102 14.0657 27.0467 14.1655 27.2219 14.3407C27.397 14.5158 27.4968 14.7524 27.5 15Z" fill="#F2DC90"/>
<path d="M7.6 15C7.59676 15.2476 7.49695 15.4842 7.32183 15.6593C7.14671 15.8345 6.91013 15.9343 6.6625 15.9375H3.4375C3.18886 15.9375 2.9504 15.8387 2.77459 15.6629C2.59877 15.4871 2.5 15.2486 2.5 15C2.5 14.7514 2.59877 14.5129 2.77459 14.3371C2.9504 14.1613 3.18886 14.0625 3.4375 14.0625H6.6625C6.91013 14.0657 7.14671 14.1655 7.32183 14.3407C7.49695 14.5158 7.59676 14.7524 7.6 15Z" fill="#F2DC90"/>
<path d="M15 7.6C14.7524 7.59676 14.5158 7.49695 14.3407 7.32183C14.1655 7.14671 14.0657 6.91013 14.0625 6.6625V3.4375C14.0625 3.18886 14.1613 2.9504 14.3371 2.77459C14.5129 2.59877 14.7514 2.5 15 2.5C15.2486 2.5 15.4871 2.59877 15.6629 2.77459C15.8387 2.9504 15.9375 3.18886 15.9375 3.4375V6.6625C15.9343 6.91013 15.8345 7.14671 15.6593 7.32183C15.4842 7.49695 15.2476 7.59676 15 7.6Z" fill="#F2DC90"/>
<path d="M6.15003 23.8375C5.97447 23.6617 5.87585 23.4234 5.87585 23.175C5.87585 22.9265 5.97447 22.6883 6.15003 22.5125L8.42503 20.2375C8.51121 20.149 8.61423 20.0787 8.72801 20.0307C8.8418 19.9827 8.96404 19.958 9.08753 19.958C9.21102 19.958 9.33326 19.9827 9.44705 20.0307C9.56083 20.0787 9.66385 20.149 9.75003 20.2375C9.92559 20.4133 10.0242 20.6515 10.0242 20.9C10.0242 21.1484 9.92559 21.3867 9.75003 21.5625L7.50003 23.8375C7.41258 23.9282 7.30773 24.0004 7.19175 24.0497C7.07577 24.099 6.95105 24.1244 6.82503 24.1244C6.69901 24.1244 6.57429 24.099 6.45831 24.0497C6.34233 24.0004 6.23748 23.9282 6.15003 23.8375Z" fill="#F2DC90"/>
<path d="M23.825 23.8375C23.6492 24.013 23.4109 24.1116 23.1625 24.1116C22.9141 24.1116 22.6758 24.013 22.5 23.8375L20.225 21.5625C20.0594 21.3847 19.9692 21.1497 19.9735 20.9068C19.9778 20.6639 20.0762 20.4322 20.248 20.2604C20.4197 20.0887 20.6515 19.9903 20.8943 19.986C21.1372 19.9817 21.3723 20.0719 21.55 20.2375L23.825 22.5C23.9138 22.5872 23.9844 22.6913 24.0325 22.8061C24.0807 22.9209 24.1055 23.0442 24.1055 23.1687C24.1055 23.2932 24.0807 23.4165 24.0325 23.5313C23.9844 23.6461 23.9138 23.7502 23.825 23.8375Z" fill="#F2DC90"/>
<path d="M9.75003 9.76233C9.57425 9.93789 9.33597 10.0365 9.08753 10.0365C8.83909 10.0365 8.60081 9.93789 8.42503 9.76233L6.15003 7.49983C5.97447 7.32405 5.87585 7.08577 5.87585 6.83733C5.87585 6.58889 5.97447 6.35061 6.15003 6.17483C6.23569 6.08168 6.33955 6.00711 6.45519 5.95571C6.57083 5.90431 6.69578 5.87719 6.82232 5.87602C6.94886 5.87484 7.0743 5.89965 7.19086 5.9489C7.30743 5.99814 7.41266 6.07079 7.50003 6.16233L9.75003 8.43733C9.92559 8.61311 10.0242 8.85139 10.0242 9.09983C10.0242 9.34827 9.92559 9.58655 9.75003 9.76233Z" fill="#F2DC90"/>
<path d="M20.225 9.76228C20.1366 9.67609 20.0663 9.57307 20.0183 9.45929C19.9703 9.34551 19.9456 9.22327 19.9456 9.09978C19.9456 8.97628 19.9703 8.85404 20.0183 8.74026C20.0663 8.62648 20.1366 8.52346 20.225 8.43728L22.5 6.16227C22.5862 6.07383 22.6892 6.00353 22.803 5.95554C22.9168 5.90754 23.039 5.88281 23.1625 5.88281C23.286 5.88281 23.4083 5.90754 23.522 5.95554C23.6358 6.00353 23.7388 6.07383 23.825 6.16227C24.0006 6.33806 24.0992 6.57634 24.0992 6.82478C24.0992 7.07321 24.0006 7.31149 23.825 7.48728L21.55 9.76228C21.3742 9.93784 21.136 10.0365 20.8875 10.0365C20.6391 10.0365 20.4008 9.93784 20.225 9.76228Z" fill="#F2DC90"/>
</svg>
