<svg width="24" height="24" viewBox="0 0 24 24" fill="none" xmlns="http://www.w3.org/2000/svg">
<path d="M9.5917 14.2444L10.1257 13.7178L10.6438 14.2431L10.127 14.7697L9.5917 14.2444ZM9.69398 14.3463L9.16488 13.8147L9.68911 13.2929L10.2181 13.8098L9.69398 14.3463ZM1 23L1.5291 23.5316C1.23675 23.8226 0.764276 23.8229 0.471563 23.5322C0.17885 23.2416 0.175777 22.7691 0.464685 22.4747L1 23ZM9.05771 14.7711C7.46901 13.1602 6.58531 10.9879 6.60104 8.72916L8.10101 8.7396C8.08805 10.5995 8.81563 12.3895 10.1257 13.7178L9.05771 14.7711ZM6.60104 8.72916C6.61677 6.47041 7.53064 4.31052 9.1416 2.72177L10.1949 3.78977C8.86641 5.09992 8.11396 6.87971 8.10101 8.7396L6.60104 8.72916ZM9.1416 2.72177C10.7524 1.13314 12.9291 0.24481 15.1952 0.250023L15.1918 1.75002C13.32 1.74571 11.5234 2.4795 10.1949 3.78977L9.1416 2.72177ZM15.1952 0.250023C17.4614 0.255235 19.6339 1.15357 21.2373 2.7496L20.1791 3.81272C18.8567 2.49637 17.0635 1.75432 15.1918 1.75002L15.1952 0.250023ZM21.2373 2.7496C22.8409 4.34575 23.7447 6.50984 23.75 8.76863L22.25 8.77212C22.2457 6.91219 21.5015 5.12896 20.1791 3.81272L21.2373 2.7496ZM23.75 8.76863C23.7552 11.0274 22.8614 13.1957 21.2653 14.7992L20.2022 13.741C21.5184 12.4187 22.2543 10.632 22.25 8.77212L23.75 8.76863ZM21.2653 14.7992C19.6693 16.4026 17.5009 17.3109 15.2348 17.3265L15.2245 15.8266C17.0962 15.8137 18.8859 15.0634 20.2022 13.741L21.2653 14.7992ZM15.2348 17.3265C12.9688 17.3422 10.788 16.4639 9.16982 14.8827L10.2181 13.8098C11.5528 15.114 13.3528 15.8395 15.2245 15.8266L15.2348 17.3265ZM10.2231 14.8778L1.5291 23.5316L0.470902 22.4684L9.16488 13.8147L10.2231 14.8778ZM0.464685 22.4747L9.05638 13.7191L10.127 14.7697L1.53532 23.5253L0.464685 22.4747Z" fill="#676565"/>
</svg>
