<svg width="30" height="32" viewBox="0 0 30 32" fill="none" xmlns="http://www.w3.org/2000/svg">
<g clip-path="url(#clip0_148_49)">
<path d="M1.28037 0.756262L0.00249584 1.51001L0 16.7271V31.9468H13.1156H26.2313V30.5865V29.2263H28.1057H29.98L29.7829 29.0192C29.3661 28.5774 29.0316 28.0757 28.6697 27.3544C28.0208 26.0616 27.6689 24.7188 27.4617 22.7746C27.4218 22.4052 27.4193 21.5042 27.4118 11.1864L27.4043 2.28882e-05H14.98H2.55824L1.28037 0.756262ZM2.57072 12.4667C2.57072 19.3652 2.5807 23.0591 2.59567 23.3436C2.70299 25.1256 3 26.4859 3.50666 27.5167C3.73378 27.9834 3.94343 28.2979 4.21547 28.5849C4.47504 28.8569 4.66972 29.0092 4.91431 29.1315L5.10399 29.2263H14.8053H24.5092V29.7255V30.2246H13.1156H1.72213V16.3628V2.50085L2.12646 2.26125C2.34859 2.12897 2.53827 2.02165 2.55075 2.02165C2.56073 2.02165 2.57072 6.72132 2.57072 12.4667ZM8.91015 8.59819V11.0067H6.6015H4.29285V8.59819V6.18971H6.6015H8.91015V8.59819ZM14.6755 8.59819V11.0067H12.1672H9.6589V8.59819V6.18971H12.1672H14.6755V8.59819ZM20.4409 8.59819V11.0067H17.9326H15.4243V8.59819V6.18971H17.9326H20.4409V8.59819ZM25.6697 8.59819V10.9942L23.4309 11.0017L21.1897 11.0067V8.59819V6.18971L23.4309 6.1947L25.6697 6.20219V8.59819ZM8.91015 14.139V16.5474H6.6015H4.29285V14.139V11.7305H6.6015H8.91015V14.139ZM14.6755 14.139V16.5474H12.1672H9.6589V14.1564C9.6589 12.8411 9.66639 11.7554 9.67637 11.7479C9.68386 11.738 10.8145 11.7305 12.1847 11.7305H14.6755V14.139ZM20.4409 14.139V16.5474H17.9326H15.4243V14.139V11.7305H17.9326H20.4409V14.139ZM25.6697 14.139V16.535L23.4309 16.5425L21.1897 16.5474V14.139V11.7305L23.4309 11.7355L25.6697 11.743V14.139ZM8.91015 19.1107C8.91015 20.1115 8.91764 21.1897 8.92762 21.5067L8.9426 22.0882H6.61897H4.29285V19.6922V17.2962H6.6015H8.91015V19.1107ZM14.6755 19.3353C14.6755 20.4584 14.683 21.5366 14.693 21.7313L14.708 22.0882H12.1997H9.69135L9.67388 21.8586C9.66639 21.7338 9.6589 20.6556 9.6589 19.4626V17.2962H12.1672H14.6755V19.3353ZM20.4409 19.5C20.4409 20.713 20.4484 21.7912 20.4559 21.896L20.4734 22.0882H17.9651H15.4567L15.4393 21.9559C15.4318 21.886 15.4243 20.8078 15.4243 19.5599V17.2962H17.9326H20.4409V19.5ZM25.6822 19.6922V22.0882L23.4434 22.0832L21.2022 22.0757L21.1947 19.6847L21.1897 17.2962H23.4359H25.6822V19.6922ZM8.99501 22.9418C9.0025 23.0017 9.01997 23.1714 9.03744 23.3236C9.19468 24.901 9.64143 26.3786 10.2304 27.2721L10.3827 27.5042H7.96173H5.54326L5.42346 27.3544C4.79201 26.5757 4.40266 25.0583 4.31032 23.0042L4.30283 22.837H6.64143H8.98253L8.99501 22.9418ZM14.7504 22.8794C14.7504 23.1365 14.9226 24.307 15.0374 24.8261C15.2621 25.837 15.6514 26.8078 16.0632 27.3844L16.1481 27.5042H13.7571H11.3661L11.2512 27.3844C10.4676 26.5757 9.92845 25.0133 9.74626 23.0167L9.72879 22.837H12.2396C14.6131 22.837 14.7504 22.8395 14.7504 22.8794ZM20.5507 23.2662C20.718 24.926 21.1622 26.401 21.7662 27.297C21.8336 27.3969 21.8885 27.4867 21.8885 27.4917C21.8885 27.4992 20.8178 27.5042 19.5075 27.5042H17.1265L16.9667 27.3345C16.3627 26.693 15.8885 25.5325 15.6489 24.0974C15.5765 23.6681 15.4992 23.0541 15.4992 22.9118V22.837H18.0025H20.5058L20.5507 23.2662ZM25.6997 22.9992C25.7446 24.03 25.9517 25.4376 26.1938 26.3187C26.2662 26.5882 26.5008 27.2995 26.5682 27.4593C26.5857 27.5017 26.4884 27.5042 24.7388 27.5042H22.8918L22.7745 27.3844C22.5075 27.1173 22.213 26.6606 22.0008 26.1864C21.6265 25.3403 21.3819 24.2671 21.2571 22.9293L21.2496 22.837L23.4734 22.842L25.6947 22.8494L25.6997 22.9992Z" fill="#353535"/>
</g>
<defs>
<clipPath id="clip0_148_49">
<rect width="30" height="31.9468" fill="white"/>
</clipPath>
</defs>
</svg>
