<svg width="40" height="34" viewBox="0 0 40 34" fill="none" xmlns="http://www.w3.org/2000/svg">
<path fill-rule="evenodd" clip-rule="evenodd" d="M30.64 32.9645C31.1766 33.3445 31.8683 33.4395 32.4849 33.2062C33.1016 32.9712 33.5549 32.4445 33.6916 31.8062C35.1399 24.9997 38.6531 7.77174 39.9714 1.58021C40.0714 1.11356 39.9048 0.628566 39.5381 0.316907C39.1714 0.00524703 38.6631 -0.0847511 38.2098 0.0835784C31.2216 2.67019 9.70044 10.745 0.903976 13.9999C0.345655 14.2066 -0.0176698 14.7432 0.000663074 15.3316C0.0206626 15.9216 0.41732 16.4332 0.988974 16.6049C4.93388 17.7848 10.1121 19.4265 10.1121 19.4265C10.1121 19.4265 12.532 26.7346 13.7937 30.4512C13.952 30.9179 14.317 31.2845 14.7987 31.4112C15.2786 31.5362 15.792 31.4045 16.1503 31.0662C18.1769 29.1529 21.3102 26.1947 21.3102 26.1947C21.3102 26.1947 27.2634 30.5596 30.64 32.9645ZM12.2904 18.5032L15.0887 27.733L15.7103 21.8881C15.7103 21.8881 26.5217 12.1366 32.6849 6.57843C32.8649 6.4151 32.8899 6.14177 32.7399 5.95011C32.5916 5.75845 32.3183 5.71345 32.1133 5.84345C24.9701 10.405 12.2904 18.5032 12.2904 18.5032Z" fill="#353535"/>
</svg>
